<?xml version="1.0" encoding="UTF-8" standalone="no" ?>
<!DOCTYPE svg PUBLIC "-//W3C//DTD SVG 1.1//EN" "http://www.w3.org/Graphics/SVG/1.1/DTD/svg11.dtd">
<svg xmlns="http://www.w3.org/2000/svg" xmlns:xlink="http://www.w3.org/1999/xlink" version="1.1" width="32" height="32" viewBox="0 0 32 32" xml:space="preserve">
<desc>Created with Fabric.js 5.2.4</desc>
<defs>
</defs>
<g transform="matrix(1 0 0 1 16 16)" id="22b39f30-98d5-476b-8b85-88757338fee5"  >
<rect style="stroke: none; stroke-width: 1; stroke-dasharray: none; stroke-linecap: butt; stroke-dashoffset: 0; stroke-linejoin: miter; stroke-miterlimit: 4; fill: rgb(255,255,255); fill-rule: nonzero; opacity: 1; visibility: hidden;" vector-effect="non-scaling-stroke"  x="-16" y="-16" rx="0" ry="0" width="32" height="32" />
</g>
<g transform="matrix(Infinity NaN NaN Infinity 0 0)" id="491c2f0e-e6eb-45ab-9c58-cee03b507e69"  >
</g>
<g transform="matrix(0.06 0 0 0.06 16 16)"  >
<g style=""   >
		<g transform="matrix(0.21 0 0 -0.21 -56.63 0.21)"  >
<path style="stroke: none; stroke-width: 1; stroke-dasharray: none; stroke-linecap: butt; stroke-dashoffset: 0; stroke-linejoin: miter; stroke-miterlimit: 4; fill: rgb(239,134,62); fill-rule: nonzero; opacity: 1;" vector-effect="non-scaling-stroke"  transform=" translate(-2612.68, -2164)" d="M 1642 3373 C 1569 3344 1473 3261 1433 3193 C 1373 3090 1374 3104 1376 2153 C 1378 1235 1378 1242 1423 1153 C 1468 1067 1567 980 1655 950 C 1712 931 1738 930 2614 930 C 3573 930 3541 929 3633 977 C 3680 1001 3779 1099 3802 1144 C 3832 1202 3850 1269 3850 1323 C 3850 1402 3844 1407 3745 1405 C 3697 1405 3655 1399 3649 1393 C 3642 1386 3634 1358 3629 1329 C 3616 1248 3560 1179 3492 1162 C 3477 1158 3076 1155 2600 1155 L 1735 1155 L 1695 1184 C 1673 1200 1645 1229 1633 1247 L 1610 1281 L 1610 2165 L 1610 3050 L 1631 3082 C 1663 3131 1707 3162 1753 3171 C 1814 3183 3438 3182 3479 3170 C 3560 3147 3608 3092 3621 3006 C 3626 2978 3639 2947 3651 2934 C 3670 2913 3683 2910 3741 2910 C 3830 2910 3850 2928 3850 3010 C 3850 3146 3747 3296 3604 3366 L 3545 3395 L 2625 3397 L 1705 3398 L 1642 3373 z" stroke-linecap="round" />
</g>
		<g transform="matrix(0.21 0 0 -0.21 70.71 0.18)"  >
<path style="stroke: none; stroke-width: 1; stroke-dasharray: none; stroke-linecap: butt; stroke-dashoffset: 0; stroke-linejoin: miter; stroke-miterlimit: 4; fill: rgb(239,134,62); fill-rule: nonzero; opacity: 1;" vector-effect="non-scaling-stroke"  transform=" translate(-3225, -2164.13)" d="M 2539 2771 C 2512 2743 2510 2737 2510 2663 C 2510 2588 2512 2582 2541 2554 L 2571 2525 L 2793 2522 C 2949 2520 3017 2515 3022 2507 C 3035 2487 3031 2325 3018 2312 C 3009 2303 2894 2300 2566 2300 C 2160 2299 2123 2298 2104 2282 C 2070 2253 2060 2225 2060 2156 C 2060 2098 2063 2087 2089 2058 L 2117 2026 L 2928 2026 C 3374 2025 3742 2022 3746 2017 C 3760 2003 3764 1831 3750 1815 C 3739 1802 3688 1800 3401 1800 C 3043 1800 3050 1801 3016 1750 C 2991 1712 2994 1612 3023 1569 L 3046 1535 L 3579 1530 C 3872 1527 4119 1528 4129 1532 C 4164 1545 4190 1603 4190 1668 C 4190 1723 4187 1732 4156 1764 L 4123 1800 L 4007 1800 C 3869 1800 3870 1799 3870 1919 C 3870 1978 3874 2003 3886 2014 C 3899 2028 3935 2030 4120 2030 L 4338 2030 L 4364 2061 C 4386 2087 4390 2101 4390 2160 C 4390 2223 4387 2232 4359 2265 L 4328 2300 L 3746 2300 C 3307 2300 3161 2303 3152 2312 C 3138 2326 3135 2487 3148 2508 C 3154 2517 3267 2521 3638 2524 C 4161 2529 4152 2528 4178 2586 C 4193 2618 4193 2705 4179 2733 C 4173 2745 4158 2765 4147 2778 L 4127 2800 L 3347 2800 L 2568 2800 L 2539 2771 z" stroke-linecap="round" />
</g>
</g>
</g>
<g transform="matrix(NaN NaN NaN NaN 0 0)"  >
<g style=""   >
</g>
</g>
<g transform="matrix(NaN NaN NaN NaN 0 0)"  >
<g style=""   >
</g>
</g>
</svg>